<?xml version="1.0" encoding="UTF-8" standalone="no"?>
<!-- Created with Inkscape (http://www.inkscape.org/) -->

<svg
   width="174.74004"
   height="170.80193"
   viewBox="0 0 174.74004 170.80193"
   version="1.1"
   id="svg1"
   inkscape:export-filename="favicon.svg"
   inkscape:export-xdpi="96"
   inkscape:export-ydpi="96"
   sodipodi:docname="navLogo.svg"
   xmlns:inkscape="http://www.inkscape.org/namespaces/inkscape"
   xmlns:sodipodi="http://sodipodi.sourceforge.net/DTD/sodipodi-0.dtd"
   xmlns="http://www.w3.org/2000/svg"
   xmlns:svg="http://www.w3.org/2000/svg">
  <sodipodi:namedview
     id="namedview1"
     pagecolor="#ffffff"
     bordercolor="#000000"
     borderopacity="0.25"
     inkscape:showpageshadow="2"
     inkscape:pageopacity="0.0"
     inkscape:pagecheckerboard="0"
     inkscape:deskcolor="#d1d1d1"
     inkscape:document-units="px" />
  <defs
     id="defs1">
    <mask
       maskUnits="userSpaceOnUse"
       id="mask2">
      <path
         id="path2"
         mask="url(#mask-powermask-path-effect6)"
         style="fill:#ffffff;stroke-width:0.507751;stroke-linejoin:round"
         transform="translate(-62.526979,-49.335449)"
         d="m 66.727031,51.44404 c 0.261406,1.691635 0.609503,2.896043 -0.97647,-1.23886 0.207139,3.969953 -0.874359,2.625615 -0.770282,6.600454 0.24403,0.06167 0.477994,0.138664 0.668693,0.283186 0.02037,-0.0051 0.04346,-0.0058 0.06356,-0.01137 -0.0093,0.03512 -0.0046,0.02604 -0.01292,0.05736 0.05477,0.04608 0.11275,0.08752 0.160714,0.144177 0.540175,0.637993 0.02455,1.672156 0.0041,2.507857 -0.06313,2.583808 -0.250438,5.163363 -0.479557,7.739579 -0.0047,0.923177 -0.02337,1.846224 -0.02481,2.76934 0.01007,0.711016 0.0159,1.173814 0.02274,1.685686 0.09665,1.205468 0.185081,2.411687 0.257348,3.618383 -0.0501,-0.03427 -0.06549,-0.03076 -0.108003,-0.05684 0.108809,0.430159 0.339242,0.907905 0.03927,1.16427 -0.0075,0.0064 -0.01618,0.01078 -0.02377,0.01705 0.196732,0.444967 0.346924,0.845321 0.114205,0.848011 -0.43475,0.0051 -0.897922,0.01105 -1.346172,-0.03359 -0.127354,0.925793 -0.289702,2.005701 -0.456819,2.751253 0.1729,1.519502 0.304523,3.044117 0.285254,4.574398 -0.0163,2.04214 -0.165453,4.076937 -0.397909,6.106087 -0.214246,1.854386 -0.447076,3.707279 -0.763261,5.547465 -0.20383,1.341342 -0.364444,2.685651 -0.467671,4.039034 -0.10314,1.24638 -0.06843,2.49489 -0.05478,3.74447 0.01713,1.36363 0.03905,2.72767 0.112137,4.08968 0.07947,1.30783 0.180638,2.61744 0.434082,3.90518 0.233299,1.13141 0.487527,2.25503 0.821139,3.36207 0.278045,1.29333 0.54774,2.59099 0.774113,3.89382 0.21565,1.22582 0.434318,2.45304 0.500228,3.69848 0.13457,1.85876 0.176835,3.72114 0.06149,5.58313 -0.141377,2.01754 -0.0714,-3.67796 -0.303177,-1.66977 34.687479,-3.98671 -534.260913,0.26578 79.610607,0.26578 V 52.241382 Z"
         sodipodi:nodetypes="cccccccccccccsccccccccccccccccccc"
         inkscape:export-filename="'lk;l;'.svg"
         inkscape:export-xdpi="96"
         inkscape:export-ydpi="96" />
    </mask>
    <mask
       maskUnits="userSpaceOnUse"
       id="mask-powermask-path-effect6">
      <path
         id="mask-powermask-path-effect6_box"
         style="fill:#ffffff;fill-opacity:1"
         d="M 60.624763,39.812889 H 169.65726 V 135.87173 H 60.624763 Z" />
      <path
         style="fill:#020202;stroke:none;stroke-width:1"
         d="M 61.96104,40.188309 V 134.90913 H 169.38187 V 40.188309 H 61.96104 m 43.12708,26.19375 h -8.466663 c -0.32617,-1.372561 -0.904621,-2.64948 -1.901073,-3.676399 -6.219029,-6.409132 -15.539025,3.211759 -14.909359,10.026399 0.350552,3.793889 3.016761,7.688881 7.285432,7.321359 4.119896,-0.354708 8.288039,-5.309629 8.288039,-5.309629 0,0 5.874004,-0.15965 8.116124,-0.15965 -1.95823,10.15546 -17.1193,16.155191 -25.66458,10.859969 -5.018743,-3.10995 -6.599102,-8.710809 -6.040297,-14.299549 0.801561,-8.016611 7.286948,-15.25383 15.036131,-17.225471 8.765053,-2.23012 18.175376,2.69517 18.256246,12.462971 m 35.45417,0 h -8.46667 c -0.35204,-1.481479 -1.00915,-2.85921 -2.14136,-3.91322 -6.36386,-5.92433 -15.03471,3.30059 -14.69275,9.998639 0.20041,3.925512 2.94846,7.913841 7.30911,7.533071 4.15617,-0.362921 8.2815,-5.409049 8.2815,-5.409049 0,0 6.00944,-0.271941 8.12267,-0.271941 -2.07486,11.63969 -20.52325,17.608801 -28.52621,8.727371 -2.94475,-3.267991 -3.60317,-7.656822 -3.17867,-11.902371 0.82531,-8.254241 7.35667,-15.303429 15.30071,-17.335921 8.70127,-2.226239 17.91297,3.064671 17.99167,12.573421 m 9.525,-11.1125 v 1.5875 h -2.11667 v 6.61458 h -1.5875 v -6.61458 h -2.38125 v -1.32292 l 6.08542,-0.26458 m 4.7625,5.291669 h 0.26458 c 0.19014,-0.9212 1.41216,-7.410008 3.43224,-4.867439 1.10268,1.38788 0.27193,6.025041 0.27193,7.77785 h -1.32292 l -0.26458,-5.291661 h -0.26458 c -0.087,1.065281 -0.56803,5.35591 -2.0938,5.16836 -1.39785,-0.171828 -1.78357,-4.314179 -1.87495,-5.432949 h -0.26459 c 0,1.824321 0.84369,5.36683 -1.5875,5.55625 0,-2.020599 0.15965,-7.5888 0.15965,-7.5888 l 2.18465,-0.18905 c 0,0 1.18144,3.543461 1.35987,4.867439 M 86.038124,90.579591 c 13.984416,-0.31922 16.932686,15.255329 10.522902,25.014959 -1.751084,2.66623 -5.696302,7.16398 -9.199986,7.40099 -2.183717,0.14771 -5.317643,-2.34374 -7.408333,-3.0764 -3.062687,-1.07328 -6.163357,-1.9866 -9.260417,-2.95105 -1.115615,-0.34741 -2.931244,-0.49425 -3.680483,-1.48439 -1.564889,-2.06805 -0.810559,-6.30551 -0.339305,-8.6204 1.859074,-9.13212 10.089915,-16.071968 19.365622,-16.283709 m 35.454166,-0.0449 c 10.30637,-1.200139 16.00728,8.575561 14.47655,17.651539 -1.40941,8.35661 -9.27006,15.521 -17.65155,16.35904 -12.77434,1.27728 -18.414825,-10.59685 -14.27035,-21.38612 2.84345,-7.402319 9.89286,-11.745 17.44535,-12.624459 m -37.835416,7.44896 c -5.022575,0.790599 -8.546132,5.304859 -9.18386,10.202579 -0.710906,5.45974 3.115173,9.7326 8.654693,8.91621 5.025321,-0.74061 8.679982,-6.17919 8.730229,-11.03288 0.04945,-4.77626 -3.063227,-8.89465 -8.201062,-8.085909 m 35.983336,2.09e-4 c -5.05857,0.814462 -8.63493,5.80705 -8.97216,10.73153 -0.34772,5.07786 3.2098,9.14168 8.44299,8.38725 4.81401,-0.69399 8.62355,-5.49062 8.97195,-10.23933 0.3804,-5.18494 -2.83513,-9.78233 -8.44278,-8.87945 z"
         id="path6"
         sodipodi:nodetypes="ccccccccssccssscccsssccssscccccccccccccccccscccccccssssssccsssccssscsssss" />
    </mask>
  </defs>
  <g
     inkscape:label="Capa 1"
     inkscape:groupmode="layer"
     id="layer1"
     transform="translate(-3.2461651,-3.5824732)">
    <rect
       style="fill:#000000;stroke-width:0.521796;stroke-linejoin:round"
       id="rect1"
       width="79.867104"
       height="79.468437"
       x="0.26578069"
       y="-0.53156763"
       mask="url(#mask2)"
       transform="matrix(2.187885,0,0,2.187885,2.6646675,1.6796018)" />
  </g>
</svg>
