<?xml version="1.0" encoding="UTF-8" standalone="no"?>
<!-- Created with Inkscape (http://www.inkscape.org/) -->

<svg
   width="126mm"
   height="115mm"
   viewBox="0 0 126 115"
   version="1.1"
   id="svg1"
   xml:space="preserve"
   sodipodi:docname="racoonLetras.svg"
   inkscape:export-filename="OneDrive\Escritorio\yago\racoonLetrasBlanco.svg"
   inkscape:export-xdpi="96"
   inkscape:export-ydpi="96"
   xmlns:inkscape="http://www.inkscape.org/namespaces/inkscape"
   xmlns:sodipodi="http://sodipodi.sourceforge.net/DTD/sodipodi-0.dtd"
   xmlns="http://www.w3.org/2000/svg"
   xmlns:svg="http://www.w3.org/2000/svg"><sodipodi:namedview
     id="namedview1"
     pagecolor="#ffffff"
     bordercolor="#000000"
     borderopacity="0.25"
     inkscape:showpageshadow="2"
     inkscape:pageopacity="0.0"
     inkscape:pagecheckerboard="0"
     inkscape:deskcolor="#d1d1d1"
     inkscape:document-units="mm"
     inkscape:clip-to-page="false" /><defs
     id="defs1"><mask
       maskUnits="userSpaceOnUse"
       id="mask-powermask-path-effect7"><path
         id="mask-powermask-path-effect7_box"
         style="fill:#ffffff;fill-opacity:1"
         d="M 0.89198864,43.596867 H 128.84434 V 160.73786 H 0.89198864 Z" /><path
         style="fill:#000000;stroke-width:1"
         d="M 0.98249351,102.00032 V 43.924262 H 64.085623 127.18875 v 58.076058 58.07605 H 64.085623 0.98249351 Z M 15.269993,155.87725 c 0,-1.12977 0.98869,-4.6344 1.78268,-6.3191 0.85576,-1.81577 2.60236,-3.64267 4.50342,-4.71044 1.62625,-0.91342 1.72023,-1.36322 0.86403,-4.13527 -0.66221,-2.14399 -1.94938,-3.66608 -3.91248,-4.62654 -1.28397,-0.62818 -1.9096,-0.75315 -4.16037,-0.83105 -1.922,-0.0665 -2.77847,0.006 -3.12026,0.26259 -0.31048,0.23348 -0.65822,1.2556 -1.01986,2.99774 -1.2573498,6.057 0.28074,13.18026 3.75632,17.39646 0.90059,1.0925 1.30652,1.08181 1.30652,-0.0344 z m 20.42958,-14.72068 3.099361,-0.48063 0.822518,-2.27219 c 3.676071,-10.15506 -0.954048,-16.21985 -12.88165,-16.87309 l -2.949979,-0.16157 -1.35347,0.8328 c -0.74441,0.45804 -1.39993,0.8328 -1.4567,0.8328 -0.0568,0 -0.0383,-0.71601 0.041,-1.59114 0.18439,-2.03356 -0.28646,-5.45689 -1.41646,-10.29833 -0.49207,-2.10825 -0.89467,-3.89452 -0.89467,-3.96948 0,-0.075 0.44648,0.62081 0.99219,1.54616 1.45404,2.46562 2.21549,2.95316 4.88559,3.12813 3.745709,0.24545 4.440971,1.02042 4.440971,4.95015 0,1.84778 0.0679,2.22309 0.380589,2.10311 0.487969,-0.18725 0.800029,-2.59753 0.55117,-4.25705 -0.335391,-2.23651 -2.49446,-3.777 -5.29913,-3.78091 -2.47493,-0.003 -3.88729,-0.94909 -5.16003,-3.45489 -1.00414,-1.97698 -1.53299,-3.90389 -1.81161,-6.60075 l -0.23234,-2.248956 -0.0331,3.042706 c -0.0335,3.08251 -0.0326,3.08848 1.83241,11.77396 0.61262,2.85309 0.92272,7.15315 0.65928,9.14204 -0.17923,1.35311 -0.28672,1.52061 -1.7568,2.73759 -0.86124,0.71297 -1.5659,1.39758 -1.5659,1.52136 0,0.12378 0.60033,0.22505 1.33407,0.22505 3.72051,0 8.26118,1.71777 10.623849,4.01907 2.462761,2.39882 3.369631,5.47926 2.77925,9.44054 l -0.211799,1.42105 0.74096,-0.12346 c 0.40753,-0.0679 2.13568,-0.33973 3.840329,-0.60407 z m 16.612089,-2.50701 c 2.11005,-0.43157 3.915111,-0.78772 4.01124,-0.79144 0.0961,-0.004 0.865121,-1.10083 1.708851,-2.43801 2.021829,-3.20428 3.255359,-6.44117 3.266969,-8.57285 0.02299,-4.23122 -3.718208,-7.7013 -11.37045,-10.54628 l -2.38351,-0.88615 -3.600069,0.49947 c -1.980051,0.2747 -3.690821,0.44338 -3.801721,0.37484 -0.289618,-0.179 -0.79589,-2.32745 -0.79589,-3.37752 0,-0.49111 0.231471,-1.77457 0.514382,-2.85215 0.56538,-2.15348 0.511169,-2.72544 -0.116031,-1.22434 -0.682799,1.63418 -0.972,3.51027 -0.88175,5.72002 l 0.0865,2.11824 -1.080701,0.16142 c -1.070769,0.15994 -1.929919,0.52296 -1.689759,0.714 0.0686,0.0545 1.071761,0.29866 2.229361,0.54253 1.174718,0.24748 3.093989,0.93345 4.343519,1.55244 7.14384,3.53889 9.008811,10.33746 4.906449,17.88596 -0.497009,0.91451 -0.903658,1.71818 -0.903658,1.78593 0,0.30055 2.005669,0.0601 5.55625,-0.66611 z m 20.868643,-8.64006 c 3.185221,-2.953 3.53563,-3.58289 3.545811,-6.37397 0.005,-1.39266 -0.16442,-2.91176 -0.4239,-3.7989 -0.76587,-2.61853 -3.237129,-4.75342 -6.620703,-5.71954 -1.89272,-0.54043 -9.362199,-0.74613 -13.28312,-0.36579 -5.91811,0.57407 -6.341121,0.79917 -2.499231,1.32999 9.128401,1.26123 14.24264,4.39778 15.756322,9.6633 0.455239,1.58358 0.43113,5.91191 -0.0419,7.52362 l -0.18624,0.63457 0.857848,-0.50228 c 0.471823,-0.27625 1.774624,-1.3522 2.895124,-2.391 z m 4.540864,-17.43737 c -1.306073,-2.57584 -3.049733,-4.46304 -4.904293,-5.30803 -6.097132,-2.77801 -16.610833,-0.20715 -19.984942,4.88682 -0.431112,0.65087 -0.749901,1.21734 -0.708411,1.25883 0.0415,0.0415 1.38072,-0.33505 2.976059,-0.83676 7.680672,-2.41543 14.597261,-3.00437 18.619044,-1.58541 1.62899,0.57474 3.270999,1.85475 4.137192,3.22509 1.190744,1.8838 1.101585,0.79757 -0.134649,-1.64054 z m -45.975167,-11.39645 2.441702,-0.95693 1.910218,0.55934 1.91022,0.55934 1.397071,-0.53459 c 3.75338,-1.436217 4.157031,-1.754728 6.362351,-5.020226 1.805549,-2.673551 2.03912,-3.15427 1.92518,-3.962262 -0.25005,-1.773198 -1.735561,-4.26974 -3.657092,-6.146059 l -1.837939,-1.794709 0.54125,-1.151472 c 0.910479,-1.936948 1.44965,-4.429609 1.468541,-6.789248 0.02,-2.493171 -0.38712,-3.625961 -1.585132,-4.410921 -1.37636,-0.90182 -4.447789,0.649319 -6.737429,3.402549 -1.69636,2.03984 -1.70602,2.129981 -0.332219,3.098321 0.66366,0.467799 1.237049,0.813999 1.274209,0.769361 0.0372,-0.0446 0.27563,-0.736031 0.52994,-1.53639 0.58243,-1.83305 1.560449,-3.558472 2.31767,-4.08885 0.32122,-0.224991 1.090581,-0.40907 1.70969,-0.40907 2.082041,0 2.373921,1.57312 1.08,5.820828 -0.643551,2.112682 -1.532731,4.233342 -1.775021,4.233342 -0.0991,0 -0.709519,-0.33291 -1.356479,-0.739791 -1.655749,-1.041329 -4.664101,-2.699801 -4.897249,-2.699801 -0.107482,0 0.927939,1.160862 2.300938,2.57969 1.773161,1.832351 2.636002,2.94843 2.978402,3.852532 0.265128,0.700069 0.421748,1.333148 0.348048,1.406859 -0.0737,0.0737 -0.71139,-0.154631 -1.417089,-0.5074 -1.568011,-0.783831 -2.071349,-0.9091 -5.03386,-1.25285 -1.284049,-0.148989 -2.712921,-0.339759 -3.17527,-0.423939 -0.775919,-0.141261 -0.883721,-0.0686 -1.400101,0.943578 -0.564819,1.107141 -1.217718,3.921901 -0.967689,4.171921 0.0744,0.0744 0.48374,-0.112889 0.90968,-0.416181 1.386509,-0.987288 1.99228,-1.088589 4.953679,-0.828408 3.197051,0.28089 4.01632,0.728358 5.811851,3.17436 1.180481,1.60814 1.406409,2.797749 0.821989,4.328038 -0.820819,2.149282 -1.247579,2.352662 -5.386139,2.56685 -3.82362,0.197892 -4.50397,0.358362 -6.090711,1.436578 -1.695428,1.15207 -4.369409,0.82848 -6.080159,-0.735776 -0.77262,-0.706462 -0.75312,-1.48199 0.0653,-2.59578 1.21482,-1.653302 1.75476,-3.073151 1.66884,-4.38845 -0.0443,-0.677442 -0.21888,-1.277231 -0.38805,-1.332871 -0.54978,-0.180821 -2.16877,1.70918 -2.36638,2.762499 -0.10222,0.544891 -0.40515,1.350322 -0.67319,1.78984 -0.28963,0.47494 -0.48773,1.301761 -0.48832,2.038181 -9e-4,1.14708 0.0869,1.31109 1.18329,2.209477 2.62902,2.15428 5.950711,2.50179 9.73548,1.01849 z m -1.394759,-1.842117 c 1.091409,-0.34858 2.3118,-0.635299 2.711979,-0.637159 0.400191,-0.0021 0.72761,-0.136631 0.72761,-0.299492 0,-0.39995 -1.75014,-3.258648 -2.247908,-3.671758 -0.218861,-0.181642 -0.397931,-0.723892 -0.397931,-1.205 0,-1.108421 -0.593061,-1.70629 -1.692571,-1.70629 -0.940258,0 -1.659559,0.616389 -2.37752,2.037379 -0.56693,1.12208 -0.53958,1.838119 0.101341,2.652919 0.731941,0.9305 0.665229,1.986561 -0.18964,3.002521 l -0.7188,0.854257 1.049529,-0.19681 c 0.577252,-0.10824 1.94251,-0.481997 3.033911,-0.830567 z m -11.77396,-2.82884 c -1.70076,-1.251421 -1.9847,-1.68556 -1.97856,-3.02519 0.01,-2.0759 0.75888,-3.36514 2.28187,-3.925769 0.7063,-0.260001 1.67352,-0.758682 2.14937,-1.108181 1.20289,-0.883499 2.67547,-1.09838 3.14325,-0.458671 0.19646,0.268682 0.3572,0.815912 0.3572,1.21607 0,1.03664 0.43385,1.16921 0.62924,0.19226 0.35181,-1.759048 0.18944,-3.377279 -0.3978,-3.96452 -0.50584,-0.505838 -0.73834,-0.543189 -2.31511,-0.371908 -0.96403,0.104719 -2.73388,0.271539 -3.93298,0.370699 -2.52069,0.20846 -2.53508,0.218901 -4.10804,2.981489 l -1.15077,2.021102 0.19858,2.079019 c 0.19654,2.057551 0.2122,2.092 1.51702,3.336711 1.26769,1.209299 1.37773,1.257369 2.85946,1.24931 l 1.54102,-0.008 z m 67.101931,0.0736 c 0.783839,-0.14442 2.308058,-0.706509 3.387156,-1.24909 7.446449,-3.744148 10.143638,-13.541449 5.132488,-18.643248 -6.285545,-6.399242 -18.277483,-1.381382 -20.345413,8.51326 -1.55235,7.427719 4.044124,12.8128 11.825769,11.379078 z m -3.601911,-5.137999 c -4.199945,-1.86667 -3.432214,-9.123439 1.23389,-11.663051 1.829829,-0.99592 4.120769,-1.084238 5.523045,-0.21292 2.95539,1.83634 2.997221,6.646701 0.0859,9.87598 -1.839378,2.040271 -4.803177,2.906522 -6.842818,1.999991 z m 20.864097,4.4084 c 0.0715,-0.254669 0.57759,-3.112169 1.12468,-6.35 0.54709,-3.237841 1.07292,-5.886979 1.16851,-5.886979 0.0956,0 0.98423,1.875229 1.97473,4.167179 0.99051,2.291959 2.22621,5.149459 2.74601,6.35 l 0.94509,2.182821 h 2.42694 c 2.29629,0 2.43496,-0.032 2.57593,-0.595321 0.082,-0.327419 0.70067,-3.690929 1.37495,-7.474471 0.67427,-3.783549 1.50411,-8.426979 1.84409,-10.31875 0.33998,-1.891768 0.53784,-3.509118 0.43968,-3.594108 -0.0982,-0.085 -1.303,-0.085 -2.67743,0 l -2.49896,0.15452 -0.32381,1.75986 c -0.1781,0.96792 -0.65537,3.914719 -1.0606,6.54844 -0.40524,2.633718 -0.80514,4.78858 -0.88867,4.78858 -0.16103,0 -0.67034,-1.143752 -3.06328,-6.879172 -0.81965,-1.964529 -1.77202,-4.20148 -2.1164,-4.971 l -0.62613,-1.399119 -2.45035,0.0762 -2.45034,0.0762 -0.34245,2.116669 c -0.18835,1.164172 -0.75281,4.319321 -1.254361,7.011461 -0.501542,2.69213 -1.16087,6.38307 -1.46517,8.202081 -0.3043,1.819008 -0.619141,3.57518 -0.699651,3.902599 -0.14446,0.58756 -0.111739,0.59532 2.510322,0.59532 2.30428,0 2.67393,-0.0614 2.78667,-0.463021 z M 65.159522,94.839962 c 4.475372,-2.683658 6.906755,-7.085499 6.686135,-12.10478 -0.170191,-3.871799 -1.748094,-6.31834 -5.080913,-7.877958 -4.3351,-2.02864 -9.45094,-0.903822 -13.535411,2.976028 -3.04291,2.890472 -4.401929,5.94451 -4.39655,9.880092 0.004,2.87633 0.20088,3.180418 2.474511,3.82062 3.66795,1.032799 8.5501,2.729259 10.00021,3.4749 1.865579,0.959268 1.978919,0.954299 3.852018,-0.168902 z m -7.953068,-3.442219 c -2.674482,-1.39098 -3.43712,-4.59097 -1.932112,-8.10714 0.649732,-1.517999 2.646842,-3.44682 4.063521,-3.924591 1.51047,-0.5094 3.608811,-0.42499 4.66013,0.187452 3.04051,1.771259 2.9316,7.204848 -0.205491,10.251549 -1.933998,1.878269 -4.734719,2.555581 -6.586048,1.59273 z M 17.919233,83.210762 c 0.27779,-0.334729 0.13676,-0.6517 -0.8535,-1.918229 -1.52862,-1.955109 -1.71525,-2.327981 -2.19019,-4.375859 -0.4963,-2.140021 -0.21289,-3.187851 0.97417,-3.601662 2.10994,-0.735528 4.18397,1.043631 4.99163,4.281951 0.40702,1.631979 0.66319,1.754439 1.63566,0.78196 0.97554,-0.97554 0.89425,-1.495999 -0.52416,-3.35594 -1.6406,-2.151291 -2.95965,-2.920619 -5.00755,-2.920619 -1.60676,0 -1.76899,0.0563 -2.49075,0.864068 -1.32715,1.485342 -0.9941,4.406331 0.94294,8.270002 1.16768,2.329079 1.80998,2.831949 2.52175,1.974328 z m 48.017389,-12.03407 c 1.839021,-0.632708 2.96142,-1.26814 4.57381,-2.589368 1.230503,-1.008312 3.761655,-4.368091 3.761655,-4.99313 0,-0.27515 -0.634582,-0.35538 -2.81092,-0.35538 h -2.810915 l -1.08145,1.22859 c -1.326208,1.506659 -2.772399,2.197518 -4.616159,2.205178 -1.920621,0.008 -3.054749,-0.530508 -3.942709,-1.872049 -1.57819,-2.384359 -0.71414,-6.871031 1.737849,-9.0239 1.907561,-1.674861 4.66793,-2.287001 6.362171,-1.41087 0.929928,0.48088 2.08226,1.823741 2.296099,2.675729 0.15794,0.629271 0.213881,0.641061 3.042634,0.641061 h 2.881728 v -1.022781 c 0,-0.638569 -0.345458,-1.71332 -0.919599,-2.860958 -1.52681,-3.051911 -3.923244,-4.547793 -7.657682,-4.779992 -3.672771,-0.228369 -6.71894,0.894689 -9.707332,3.578882 -5.099979,4.580839 -6.021438,12.500059 -1.92617,16.554029 2.668731,2.641801 6.784621,3.412299 10.81699,2.024959 z m 22.09379,0.51693 c 3.684808,-0.583758 7.362145,-3.061489 9.565836,-6.445308 1.48145,-2.274782 1.481979,-2.274081 -1.747451,-2.274081 h -2.764959 l -1.001329,1.197909 c -1.983171,2.372522 -5.483646,3.261201 -7.518686,1.90881 -2.14734,-1.427019 -2.728841,-4.817189 -1.327071,-7.736938 1.358961,-2.83061 3.512781,-4.365622 6.125478,-4.365622 2.019839,0 3.670149,1.0986 4.238847,2.82176 l 0.291211,0.882401 h 2.889901 2.88989 v -0.78382 c 0,-2.481 -2.545061,-6.060191 -5.0879,-7.155262 -1.93284,-0.832368 -5.363451,-1.01959 -7.494397,-0.408998 -3.36068,0.962951 -6.104078,2.968159 -8.05833,5.890019 -4.582197,6.850952 -2.135286,14.820702 5.030221,16.383791 1.867199,0.40731 1.928109,0.40862 3.968739,0.0853 z M 17.798203,68.205493 c 0.30096,-1.70674 0.62036,-3.17632 0.70978,-3.265739 0.0894,-0.0894 0.33923,0.175908 0.55515,0.589619 0.21592,0.4137 0.98867,1.88328 1.71722,3.265741 l 1.32465,2.513539 3.19708,0.0743 c 1.7584,0.0409 3.197079,0.0259 3.197079,-0.0332 0,-0.0591 -0.9525,-1.67762 -2.116669,-3.59672 -1.16417,-1.919081 -2.11667,-3.5761 -2.11667,-3.682272 0,-0.106159 0.51096,-0.329679 1.13546,-0.496708 3.49663,-0.935201 6.25955,-6.260142 5.204111,-10.029801 -0.469,-1.675101 -2.118572,-3.376962 -3.693732,-3.810791 -1.636819,-0.450829 -10.814189,-0.47108 -11.090209,-0.0245 -0.10915,0.176609 -0.34661,1.298781 -0.5277,2.4937 -0.18109,1.19493 -0.67255,3.974222 -1.09215,6.176222 -0.4196,2.202008 -1.06972,5.833409 -1.44471,8.069799 -0.37499,2.236399 -0.74624,4.2788 -0.82499,4.538679 -0.13199,0.435602 0.0701,0.4666 2.58796,0.396872 l 2.73114,-0.0756 z m 1.52326,-8.472371 c 0.077,-0.327419 0.28479,-1.517518 0.46166,-2.644648 0.44261,-2.820572 0.56821,-2.952541 2.58712,-2.718221 2.25692,0.26194 2.82708,0.769541 2.80232,2.49478 -0.032,2.22916 -1.58643,3.463409 -4.36186,3.463409 -1.55479,0 -1.62292,-0.0272 -1.48924,-0.59532 z m 16.71833,10.12032 0.758751,-1.5875 h 3.757779 3.757771 l 0.228478,1.52136 0.228471,1.521351 2.97656,0.0748 c 2.499201,0.0628 2.976559,0.0113 2.976559,-0.32099 0,-0.217692 -0.360878,-2.096821 -0.801949,-4.175861 -0.441071,-2.07903 -1.265261,-6.042239 -1.83152,-8.80714 -0.566269,-2.764899 -1.226971,-5.890289 -1.46822,-6.945321 l -0.43864,-1.918221 h -2.063059 c -1.331532,0 -2.157831,0.117271 -2.33031,0.330721 -0.295442,0.36562 -12.497552,21.650891 -12.497552,21.80063 0,0.0515 1.34733,0.0937 2.99406,0.0937 h 2.994062 z m 3.35139,-6.312619 c 0.69475,-1.789769 3.270411,-6.876651 3.40461,-6.72406 0.161481,0.18361 0.78595,5.34493 0.785,6.488239 -2.64e-4,0.402751 -0.278759,0.463021 -2.13909,0.463021 -1.1763,0 -2.099029,-0.10224 -2.05052,-0.2272 z m 65.307977,-9.959269 v -2.248961 h 0.79375 c 0.62261,0 0.79375,-0.116401 0.79375,-0.539861 0,-0.506018 -0.13686,-0.535051 -2.18281,-0.463029 -1.72973,0.0609 -2.18281,0.159229 -2.18281,0.473731 0,0.25436 0.30878,0.426638 0.85989,0.47978 l 0.8599,0.0829 v 2.232189 c 0,2.05581 0.0418,2.2322 0.52917,2.2322 0.48766,0 0.52916,-0.17639 0.52916,-2.248959 z m 3.22956,0.330729 0.0777,-1.918229 0.49501,1.93244 c 0.43135,1.683948 0.56603,1.922108 1.04736,1.852078 0.43313,-0.063 0.64039,-0.423008 0.9602,-1.667849 l 0.40785,-1.5875 0.0792,1.670331 c 0.0735,1.550379 0.12102,1.664388 0.66145,1.5875 0.55561,-0.079 0.58226,-0.203901 0.58226,-2.728672 v -2.645828 h -0.90604 c -0.87755,0 -0.91594,0.0439 -1.22069,1.397079 -0.41423,1.839209 -0.55808,1.9254 -0.91434,0.54786 -0.56451,-2.182781 -0.51598,-2.113211 -1.41332,-2.026161 l -0.83728,0.0812 -0.0754,2.711979 c -0.0711,2.55683 -0.0453,2.711982 0.45143,2.711982 0.47046,0 0.53515,-0.205251 0.60457,-1.918232 z"
         id="path7" /></mask></defs><g
     inkscape:label="Capa 1"
     inkscape:groupmode="layer"
     id="layer1"><path
       id="rect3"
       mask="url(#mask-powermask-path-effect7)"
       style="fill:#ffffff;stroke-width:0.499999;stroke-linejoin:round"
       transform="translate(-1.3514198,-44.867153)"
       d="M 126.49675,44.596368 1.8919553,44.596885 V 159.73766 H 15.980501 c -2.389526,-0.32009 -3.536274,-1.44826 -4.703072,-3.07371 -3.9711367,-0.95686 -5.3628253,-3.86447 -5.444629,-6.90139 -0.1367753,-0.18793 -0.2647947,-0.36984 -0.407727,-0.55862 -0.4430186,-1.02786 -0.9754769,-2.02161 -1.3291179,-3.08354 -0.573102,-1.72085 -0.9002254,-3.89962 -0.8082194,-5.72058 0.046752,-0.92529 0.086522,-1.88388 0.4242635,-2.7466 0.507792,-1.2971 0.8265855,-3.00578 2.072225,-3.62924 1.7923466,-0.897 3.8415621,-1.027 5.8704428,-1.21853 0.09275,-0.89054 0.287337,-1.82763 0.447518,-2.98069 0.0632,-0.0932 0.112504,-0.2007 0.171566,-0.29818 -1.52557,-2.01559 -2.065904,-4.21392 0.387056,-8.16539 0.353574,-0.56956 0.829901,-1.03265 1.373043,-1.42885 -1.320065,-1.69829 -1.039559,-4.25128 -0.916223,-6.40219 0.09674,-1.68708 0.747604,-3.42513 1.538924,-5.09892 -0.535088,-0.20396 -1.159455,-0.53885 -1.891874,-1.03404 -0.782065,-0.52876 -0.306356,-0.18856 -1.393714,-1.06661 -0.288151,-0.30926 -0.595902,-0.60169 -0.864546,-0.9281 C 9.5067927,104.18792 8.89577,102.71053 8.3923337,101.23787 8.1163993,100.30811 7.979795,99.926226 7.7913368,98.944989 7.4277402,97.051867 7.3660114,95.122029 7.5815305,93.206838 7.7651985,92.056804 7.856685,91.503564 8.0915769,90.666941 7.4216696,89.994124 6.8199558,89.256833 6.2508623,88.495498 5.2406798,87.127395 4.7146549,85.650439 4.3672564,84.007916 4.1962259,82.962542 4.0893229,81.869229 4.254085,80.813279 c 0.067006,-0.429431 0.119459,-0.866673 0.2614827,-1.277441 0.2199226,-0.636072 0.545268,-1.230617 0.818038,-1.845882 1.0173,-1.492015 1.9613104,-2.294287 3.5692912,-3.051494 0.3709035,-0.174655 0.7873247,-0.311416 1.1751221,-0.45837 0.470245,-0.173725 0.951505,-0.309291 1.436605,-0.428397 0.372914,-0.286988 0.758628,-0.551876 1.110526,-0.814421 0.858734,-0.497359 1.800253,-0.795649 2.753837,-1.04128 0.779692,-0.189839 1.581727,-0.230431 2.380217,-0.253731 0.149415,-0.0083 0.298055,-0.01141 0.446484,-0.0098 1.038999,0.01056 2.053886,0.249079 3.045292,0.553455 0.744513,0.253596 1.459473,0.576886 2.166793,0.917773 0.549991,0.28968 0.410096,0.21392 0.952914,0.468706 0.01395,0.02184 0.254528,0.123718 0.428914,0.195853 0.272854,0.08564 0.553571,0.129517 0.837675,0.157613 0.491464,0.03689 0.986709,0.02292 1.479496,0.01912 0.415961,-0.03363 0.832463,-0.06063 1.24902,-0.0863 -0.0019,-0.0017 -0.0141,0.0014 -0.01034,-0.0031 8.13e-4,-9.7e-4 0.302056,-0.03807 0.312126,-0.03927 0.301492,-0.03509 0.603383,-0.06272 0.905888,-0.08733 0.414287,-0.09545 0.852075,-0.135395 1.276408,-0.186035 0.716704,-0.08476 1.438172,-0.114382 2.159041,-0.135392 0.20355,-0.0093 0.40683,-0.0023 0.610299,-0.0016 0.0065,-0.0047 0.01203,-0.0092 0.0186,-0.01395 1.150481,-0.767698 2.471488,-1.127282 3.830257,-1.277958 0.5152,-0.05096 1.032461,-0.06551 1.549777,-0.07441 0.01866,1.14e-4 0.0351,0.0032 0.05323,0.0041 0.08915,-0.109658 0.189145,-0.192556 0.295589,-0.249081 -0.0034,-0.03909 -0.02376,-0.07648 -0.02015,-0.116272 0.0366,-0.403468 0.888864,-0.492862 1.181323,-0.525032 0.361918,-0.06054 0.725531,-0.109414 1.090889,-0.143144 0.111684,-0.01633 0.221024,-0.02165 0.328662,-0.01809 0.322924,0.0107 0.629295,0.105415 0.927592,0.253732 0.414234,0.197364 0.709658,0.55082 0.963766,0.92139 0.17642,0.279293 0.283764,0.592832 0.415995,0.893486 0.190801,0.433818 0.15712,0.781227 0.01137,0.995288 0.833152,0.745865 1.122827,1.378431 1.629875,2.295984 0.575753,1.23106 0.866532,2.543911 0.987536,3.890202 0.08763,1.05906 -0.0309,2.110735 -0.286804,3.138826 -0.234719,0.781107 -0.541158,1.554871 -0.958081,2.259811 -0.0352,0.05951 -0.07438,0.1166 -0.111104,0.175183 0.06171,0.135639 0.125112,0.270487 0.187068,0.406176 0.01112,0.02433 0.04692,0.09633 0.03617,0.07183 -0.07556,-0.172209 -0.131485,-0.264291 -0.01809,-0.0646 0.280403,0.43708 0.543841,0.989871 0.771529,1.492932 0.03884,0.07496 0.02747,0.05718 0.05116,0.104387 0.04624,0.07828 0.09269,0.156404 0.13901,0.234611 0.41041,0.611153 0.676536,1.29264 0.933793,1.977657 0.172997,0.505411 0.299487,1.025719 0.403593,1.549259 0.07501,0.377177 0.0804,0.546459 0.0739,0.379305 0.05989,0.250612 0.134757,0.500223 0.207739,0.752926 0.16343,0.335183 0.323352,0.672291 0.446485,1.026294 0.0995,0.311474 0.213333,0.618518 0.298173,0.93431 0.127355,0.474076 0.202263,0.957355 0.258382,1.443322 1.42769,0.764794 2.849467,1.559813 4.107243,2.581755 0.491478,0.399335 0.98577,0.804333 1.406115,1.277958 0.519555,0.585407 1.071172,1.174547 1.400432,1.884637 0.231271,0.49879 0.394322,1.0239 0.540018,1.55546 1.879389,-0.002 3.992695,0.0231 5.419825,1.20251 0.07397,0.0611 0.127314,0.13907 0.195853,0.20464 1.799931,0.15615 3.604425,0.26022 5.407422,0.37569 2.182859,-2.73271 5.405754,-4.58257 9.016504,-4.61884 4.027382,-0.0405 4.900031,1.17884 7.941117,3.23339 0.672555,0.79274 1.432681,1.51897 2.017965,2.37815 0.296811,0.43571 0.574124,0.88912 0.822172,1.35703 0.682382,0.14987 1.351318,0.30715 1.948718,0.47697 0.866602,0.24635 1.71061,0.56748 2.565735,0.85111 2.508203,0.98603 4.748092,2.43649 6.783049,4.18889 0.547929,0.47186 1.052668,0.99217 1.578714,1.48828 9.73295,9.17865 0.10366,19.19276 -9.365836,9.74256 -1.021618,-1.01954 -2.058332,-2.0283 -3.389974,-2.64015 -0.451591,-0.16564 -0.893894,-0.3595 -1.354956,-0.49661 -0.541266,-0.16096 -1.156221,-0.30694 -1.779736,-0.44183 0.05652,0.93732 0.02302,1.90398 0.146761,2.81946 -0.463931,1.39907 -0.700574,2.89532 -1.391646,4.19716 -0.63181,1.19027 -1.522031,2.2549 -2.516126,3.16467 -1.837051,1.68122 -4.137864,2.72795 -6.510197,2.91507 -0.589938,0.20917 -1.192717,0.33091 -1.792139,0.34468 -0.372253,0.90354 -0.780384,1.78388 -1.396814,2.52956 -2.308215,2.79223 -6.4732,4.82171 -10.21333,3.55327 -0.795866,-0.26991 -1.567341,-0.65626 -2.288232,-1.12861 -0.344591,0.25991 -0.700758,0.4652 -1.063501,0.63872 -0.08624,0.25051 -0.185388,0.49725 -0.304891,0.7369 -0.827338,1.65976 -2.478567,2.84343 -4.073653,3.78944 -1.737372,1.03039 -4.288654,1.48873 -6.588745,1.1808 0.08597,0.30333 0.168957,0.60786 0.262516,0.90848 0.09567,1.21516 0.505542,2.44602 0.286804,3.64525 -0.927873,5.08709 -3.845742,9.54534 -11.166243,6.67608 -2.587987,-1.01435 -3.388216,-4.52004 -4.295862,-7.14737 -0.415735,-1.2034 -0.325438,-2.92918 -0.06201,-4.68808 -0.02395,-0.0374 -0.04448,-0.0735 -0.06873,-0.11111 -0.572294,1.6444 -1.145444,3.28883 -1.693954,4.9413 0.05982,0.0115 0.117469,0.0142 0.177767,0.0269 0.06074,0.0128 -0.205584,0.0554 -0.186035,-0.003 0.0026,-0.008 0.0056,-0.0158 0.0083,-0.0238 -0.784653,-0.151 -1.535,-0.21124 -2.356962,-0.24236 -0.646685,-0.0245 -1.069301,-0.0173 -1.53479,-0.016 0.08397,1.41307 0.04412,2.68162 -0.598413,4.36252 -0.443699,1.16079 -0.894568,2.42889 -1.828312,3.2489 -1.316152,1.15583 -2.840108,2.4034 -4.554244,2.69286 H 124.12015 c -0.1094,-1.36755 -0.21223,-2.73612 -0.30695,-4.10362 -0.29138,-3.15901 -0.23134,-6.32557 -0.076,-9.48831 0.0953,-2.17297 0.33083,-4.34219 0.80409,-6.46576 6.5e-4,-0.002 10e-4,-0.005 0.002,-0.007 -0.002,-0.0141 -0.002,-0.0288 -0.004,-0.0429 -0.42947,-3.63649 -0.98687,-7.25792 -1.32808,-10.90373 -0.22353,-3.1422 -0.15198,-6.28903 -0.0424,-9.4356 0.11686,-3.25498 0.2714,-6.51075 0.62322,-9.75031 0.27293,-2.45246 0.61948,-4.89565 0.88315,-7.3489 0.25299,-2.415373 0.45233,-4.836015 0.72657,-7.24917 0.36934,-3.21282 0.74116,-6.425706 1.02991,-9.646956 0.0514,-0.522408 0.0799,-1.046129 0.12506,-1.568896 0.0114,-0.249883 0.0166,-0.499915 0.0279,-0.749825 0.18983,-4.021826 0.17855,-8.049872 0.18655,-12.075232 0.003,-3.012828 -5.8e-4,-6.025898 -0.003,-9.038725 -0.005,-1.442241 0.0252,-2.883975 -0.0579,-4.324284 -0.0916,-1.405362 -0.13123,-2.813149 -0.16123,-4.220931 -0.0308,-1.647134 -0.0385,-3.294447 -0.0455,-4.941817 -0.005,-1.259695 -0.006,-2.519409 -0.007,-3.779098 z m -22.1418,2.120285 c 0.0271,-0.0019 0.0524,-0.0016 0.0765,5.16e-4 0.31779,0.02852 0.39086,0.395722 0.51987,0.73794 0.68498,0.242729 1.21455,0.99397 1.61954,1.685685 0.0961,-0.06237 0.2146,-0.123711 0.36638,-0.183451 0.0881,-0.03466 0.18627,-0.0098 0.28836,0.05064 0.0778,-0.59282 0.29397,-1.209747 0.93121,-1.207162 0.29567,0.0012 0.52677,0.268686 0.79013,0.403076 0.11523,0.192106 0.24319,0.377529 0.34571,0.576709 0.0378,0.0734 0.0749,0.150627 0.11163,0.229444 0.25342,-0.201932 0.57531,-0.2222 1.03352,-0.02377 0.25813,0.111773 0.42149,0.380737 0.58033,0.612883 0.0474,0.06928 0.0922,0.147853 0.13591,0.22996 0.26971,-0.0076 0.5662,0.08551 0.88625,0.304374 0.52782,0.360931 0.68476,1.006708 0.89865,1.549776 0.14992,0.661779 0.2973,1.404449 0.10439,2.080494 0.082,0.327119 0.14044,0.660461 0.1602,0.995288 0.009,0.166018 -0.002,0.332371 -0.002,0.498677 -0.0326,0.164424 -0.0426,0.335215 -0.0977,0.49351 -0.0929,0.266661 -0.23908,0.441147 -0.40514,0.573092 -0.01,0.0758 -0.0192,0.15177 -0.03,0.227376 -0.13554,0.57654 -0.31682,0.967891 -0.85835,1.089339 -0.0561,1.22167 -1.42463,1.127759 -1.34875,-0.130224 -0.0408,0.130292 -0.0961,0.239287 -0.2155,0.252181 -0.99155,0.107103 -1.20101,-0.347564 -1.42781,-0.957048 -0.13239,0.01804 -0.32407,0.01297 -0.58912,-0.01137 -0.17649,0.02182 -0.2868,0.009 -0.35501,-0.03876 -0.0352,-0.0042 -0.0594,-0.0057 -0.0966,-0.01034 -0.1409,-0.01754 -0.0341,-0.282441 -0.0486,-0.423747 -0.0223,-0.217425 -0.0427,-0.435111 -0.0636,-0.652673 -0.0121,0.05378 -0.0229,0.09885 -0.0357,0.156062 -0.18362,0.614761 -0.37947,1.447733 -0.81391,1.914096 0.16433,0.149587 0.33275,0.294593 0.50592,0.433048 h -10e-4 c 1.04491,0.835444 0.38214,1.951288 -0.69556,1.158586 -0.85545,-0.629234 -1.58305,-1.429927 -2.30012,-2.209168 -1.05031,-1.264537 -1.76957,-2.774821 -2.08411,-4.39198 -0.0576,-0.296373 -0.0788,-0.598741 -0.11782,-0.898136 -0.12868,-0.218336 -0.45061,-0.741417 -0.48783,-0.968417 -0.0492,-0.300379 -0.15687,-0.645499 -0.0119,-0.913122 0.19465,-0.359221 0.52366,-0.331075 0.81855,-0.277503 0.1765,-0.493521 0.42426,-0.963119 0.74672,-1.39733 0.10279,-0.138411 0.22079,-0.265009 0.33125,-0.397392 -0.0507,-0.271313 -0.21196,-0.610084 -0.005,-0.75706 0.38578,-0.274398 0.65086,-0.390881 0.84026,-0.404109 z m -0.30437,2.740917 c -0.006,-5.91e-4 -0.0128,0.0011 -0.0202,0.0031 -0.0711,0.117032 -0.13502,0.235029 -0.19223,0.355017 0.0334,-0.0104 0.0662,-0.0164 0.0987,-0.01964 0.0437,-0.0608 0.0862,-0.123024 0.13022,-0.183451 0.0201,-0.08943 0.0209,-0.151114 -0.0165,-0.15503 z m -1.95182,1.537374 c -0.0142,0.0032 0.007,0.0094 0.047,0.0098 3.2e-4,-0.0033 7.5e-4,-0.0065 0.001,-0.0098 -0.0234,-0.0015 -0.041,-0.0016 -0.0481,0 z m 2.86339,3.284554 c 0.0728,0.383061 0.16799,0.762112 0.28939,1.135332 0.11825,0.267354 0.23122,0.536942 0.3545,0.802018 0.0698,0.15005 0.22827,0.277436 0.22427,0.442867 -6.6e-4,0.02615 -0.0107,0.04938 -0.0243,0.07131 0.0178,0.019 0.0364,0.03736 0.0543,0.05633 0.20653,-0.340828 0.34974,-0.919279 0.45165,-1.257288 0.006,-0.02466 0.0105,-0.04425 0.016,-0.06821 -0.0836,-0.06935 -0.1671,-0.140208 -0.25477,-0.189652 -0.10668,-0.18949 -0.22617,-0.372199 -0.31987,-0.568441 -0.01,-0.02059 -0.0261,-0.06243 -0.0382,-0.09043 -0.0861,0.07213 -0.17072,0.145408 -0.24805,0.223759 -0.13178,-0.123219 -0.2938,-0.220873 -0.39533,-0.370003 -0.0409,-0.06013 -0.0763,-0.12295 -0.10955,-0.187586 z m 5.31595,0.799952 c 0.002,0.0095 0.004,0.01894 0.006,0.02842 0.001,-0.0022 0.003,-0.0051 0.005,-0.0072 -0.003,-0.0072 -0.007,-0.01389 -0.0103,-0.02119 z m 0.79272,0.932242 c -0.0474,0.03452 -0.0974,0.06436 -0.15399,0.08372 -0.14629,0.05007 -0.2925,0.06808 -0.43719,0.06046 0.0373,0.210027 0.07,0.402041 0.0796,0.487825 0.008,0.07347 0.006,0.147717 0.008,0.221692 0.0276,-0.06315 0.0627,-0.142809 0.1173,-0.277502 0.37408,-0.188457 0.46748,-0.319464 0.66043,-0.324528 6.8e-4,-0.0046 8.7e-4,-0.0053 0.002,-0.0098 -0.0973,-0.06799 -0.19022,-0.147753 -0.27544,-0.241846 z m 0.22996,0.443384 c -0.008,0.0075 -0.0162,0.01533 -0.0238,0.02377 -0.0426,0.04733 -0.0758,0.242515 -0.0496,0.184485 0.0303,-0.06724 0.0517,-0.137567 0.0734,-0.208255 z m -0.15916,1.123446 c -0.003,0.0046 0.0549,0.03737 0.0775,0.03256 0.007,-0.0015 0.0138,-0.0036 0.0207,-0.0052 -0.0308,-0.01061 -0.0617,-0.02076 -0.093,-0.02739 -0.003,-6.83e-4 -0.005,-6.57e-4 -0.005,0 z m -96.674722,15.66261 c -0.0285,0.0043 -0.05661,0.01032 -0.08527,0.01395 0.0336,-0.0037 0.06721,-0.0068 0.100769,-0.01085 0.0052,-7e-4 -0.0103,-0.0039 -0.0155,-0.0031 z m 58.233138,29.759428 c -0.205114,0.19603 -0.103522,0.10778 0.433049,0.4873 -0.152481,-0.17086 -0.325461,-0.36813 -0.433049,-0.4873 z m -54.611653,9.24801 c -0.08401,0.0756 -0.145508,0.12677 -0.236162,0.20877 -0.07722,0.0699 0.225915,-0.18492 0.243396,-0.19585 -0.0024,-0.004 -0.0048,-0.009 -0.0072,-0.0129 z m 15.646073,37.21323 c -0.03717,0.25968 -0.07534,0.49297 -0.113171,0.78032 -0.01246,0.0946 0.149982,-0.11847 0.224792,-0.17777 -0.04327,-0.19904 -0.07618,-0.4013 -0.111621,-0.60255 z" /></g></svg>
